<mxfile host="Electron" modified="2024-08-28T06:58:41.697Z" agent="Mozilla/5.0 (Windows NT 10.0; Win64; x64) AppleWebKit/537.36 (KHTML, like Gecko) draw.io/24.2.5 Chrome/120.0.6099.109 Electron/28.1.0 Safari/537.36" etag="PV0VYiTpUodImM9Ttaxp" version="24.2.5" type="device">
  <diagram name="第 1 页" id="IThplvPI9K8DWy0Q_f4-">
    <mxGraphModel dx="2074" dy="1196" grid="1" gridSize="10" guides="1" tooltips="1" connect="1" arrows="1" fold="1" page="1" pageScale="1" pageWidth="827" pageHeight="1169" math="0" shadow="0">
      <root>
        <mxCell id="0" />
        <mxCell id="1" parent="0" />
        <mxCell id="HajGuJzdZtFO8f0e5h4y-1" value="" style="edgeStyle=orthogonalEdgeStyle;rounded=0;orthogonalLoop=1;jettySize=auto;html=1;" edge="1" parent="1" source="HajGuJzdZtFO8f0e5h4y-2" target="HajGuJzdZtFO8f0e5h4y-7">
          <mxGeometry relative="1" as="geometry">
            <mxPoint x="310" y="341" as="targetPoint" />
          </mxGeometry>
        </mxCell>
        <mxCell id="HajGuJzdZtFO8f0e5h4y-2" value="&lt;b&gt;Aggregate (Partial)&lt;/b&gt;" style="whiteSpace=wrap;html=1;rounded=0;fillColor=#dae8fc;strokeColor=#6c8ebf;" vertex="1" parent="1">
          <mxGeometry x="250" y="395" width="120" height="60" as="geometry" />
        </mxCell>
        <mxCell id="HajGuJzdZtFO8f0e5h4y-3" value="" style="edgeStyle=orthogonalEdgeStyle;rounded=0;orthogonalLoop=1;jettySize=auto;html=1;" edge="1" parent="1" source="HajGuJzdZtFO8f0e5h4y-4" target="HajGuJzdZtFO8f0e5h4y-2">
          <mxGeometry relative="1" as="geometry" />
        </mxCell>
        <mxCell id="HajGuJzdZtFO8f0e5h4y-4" value="" style="rounded=1;whiteSpace=wrap;html=1;fillColor=#d5e8d4;strokeColor=#82b366;" vertex="1" parent="1">
          <mxGeometry x="265" y="492" width="90" height="20" as="geometry" />
        </mxCell>
        <mxCell id="HajGuJzdZtFO8f0e5h4y-5" value="" style="rounded=1;whiteSpace=wrap;html=1;fillColor=#d5e8d4;strokeColor=#82b366;" vertex="1" parent="1">
          <mxGeometry x="265" y="522" width="90" height="20" as="geometry" />
        </mxCell>
        <mxCell id="HajGuJzdZtFO8f0e5h4y-6" value="Partition0" style="text;html=1;align=center;verticalAlign=middle;resizable=0;points=[];autosize=1;strokeColor=none;fillColor=none;" vertex="1" parent="1">
          <mxGeometry x="275" y="550" width="70" height="30" as="geometry" />
        </mxCell>
        <mxCell id="HajGuJzdZtFO8f0e5h4y-7" value="" style="rounded=1;whiteSpace=wrap;html=1;fillColor=#d5e8d4;strokeColor=#82b366;" vertex="1" parent="1">
          <mxGeometry x="265" y="330" width="90" height="20" as="geometry" />
        </mxCell>
        <mxCell id="HajGuJzdZtFO8f0e5h4y-8" value="Partition0" style="text;html=1;align=center;verticalAlign=middle;resizable=0;points=[];autosize=1;strokeColor=none;fillColor=none;" vertex="1" parent="1">
          <mxGeometry x="275" y="298" width="70" height="30" as="geometry" />
        </mxCell>
        <mxCell id="HajGuJzdZtFO8f0e5h4y-9" value="" style="edgeStyle=orthogonalEdgeStyle;rounded=0;orthogonalLoop=1;jettySize=auto;html=1;" edge="1" parent="1" source="HajGuJzdZtFO8f0e5h4y-10" target="HajGuJzdZtFO8f0e5h4y-15">
          <mxGeometry relative="1" as="geometry">
            <mxPoint x="440" y="341" as="targetPoint" />
          </mxGeometry>
        </mxCell>
        <mxCell id="HajGuJzdZtFO8f0e5h4y-10" value="&lt;b&gt;Aggregate (Partial)&lt;/b&gt;" style="whiteSpace=wrap;html=1;rounded=0;fillColor=#dae8fc;strokeColor=#6c8ebf;" vertex="1" parent="1">
          <mxGeometry x="380" y="395" width="120" height="60" as="geometry" />
        </mxCell>
        <mxCell id="HajGuJzdZtFO8f0e5h4y-11" value="" style="edgeStyle=orthogonalEdgeStyle;rounded=0;orthogonalLoop=1;jettySize=auto;html=1;" edge="1" parent="1" source="HajGuJzdZtFO8f0e5h4y-12" target="HajGuJzdZtFO8f0e5h4y-10">
          <mxGeometry relative="1" as="geometry" />
        </mxCell>
        <mxCell id="HajGuJzdZtFO8f0e5h4y-12" value="" style="rounded=1;whiteSpace=wrap;html=1;fillColor=#d5e8d4;strokeColor=#82b366;" vertex="1" parent="1">
          <mxGeometry x="395" y="492" width="90" height="20" as="geometry" />
        </mxCell>
        <mxCell id="HajGuJzdZtFO8f0e5h4y-13" value="" style="rounded=1;whiteSpace=wrap;html=1;fillColor=#d5e8d4;strokeColor=#82b366;" vertex="1" parent="1">
          <mxGeometry x="395" y="522" width="90" height="20" as="geometry" />
        </mxCell>
        <mxCell id="HajGuJzdZtFO8f0e5h4y-14" value="Partition1" style="text;html=1;align=center;verticalAlign=middle;resizable=0;points=[];autosize=1;strokeColor=none;fillColor=none;" vertex="1" parent="1">
          <mxGeometry x="405" y="550" width="70" height="30" as="geometry" />
        </mxCell>
        <mxCell id="HajGuJzdZtFO8f0e5h4y-15" value="" style="rounded=1;whiteSpace=wrap;html=1;fillColor=#d5e8d4;strokeColor=#82b366;" vertex="1" parent="1">
          <mxGeometry x="395" y="330" width="90" height="20" as="geometry" />
        </mxCell>
        <mxCell id="HajGuJzdZtFO8f0e5h4y-16" value="Partition1" style="text;html=1;align=center;verticalAlign=middle;resizable=0;points=[];autosize=1;strokeColor=none;fillColor=none;" vertex="1" parent="1">
          <mxGeometry x="405" y="298" width="70" height="30" as="geometry" />
        </mxCell>
        <mxCell id="HajGuJzdZtFO8f0e5h4y-17" value="" style="edgeStyle=orthogonalEdgeStyle;rounded=0;orthogonalLoop=1;jettySize=auto;html=1;" edge="1" parent="1" source="HajGuJzdZtFO8f0e5h4y-18" target="HajGuJzdZtFO8f0e5h4y-23">
          <mxGeometry relative="1" as="geometry">
            <mxPoint x="630" y="341" as="targetPoint" />
          </mxGeometry>
        </mxCell>
        <mxCell id="HajGuJzdZtFO8f0e5h4y-18" value="&lt;b&gt;Aggregate (Partial)&lt;/b&gt;" style="whiteSpace=wrap;html=1;rounded=0;fillColor=#dae8fc;strokeColor=#6c8ebf;" vertex="1" parent="1">
          <mxGeometry x="570" y="395" width="120" height="60" as="geometry" />
        </mxCell>
        <mxCell id="HajGuJzdZtFO8f0e5h4y-19" value="" style="edgeStyle=orthogonalEdgeStyle;rounded=0;orthogonalLoop=1;jettySize=auto;html=1;" edge="1" parent="1" source="HajGuJzdZtFO8f0e5h4y-20" target="HajGuJzdZtFO8f0e5h4y-18">
          <mxGeometry relative="1" as="geometry" />
        </mxCell>
        <mxCell id="HajGuJzdZtFO8f0e5h4y-20" value="" style="rounded=1;whiteSpace=wrap;html=1;fillColor=#d5e8d4;strokeColor=#82b366;" vertex="1" parent="1">
          <mxGeometry x="585" y="492" width="90" height="20" as="geometry" />
        </mxCell>
        <mxCell id="HajGuJzdZtFO8f0e5h4y-21" value="" style="rounded=1;whiteSpace=wrap;html=1;fillColor=#d5e8d4;strokeColor=#82b366;" vertex="1" parent="1">
          <mxGeometry x="585" y="522" width="90" height="20" as="geometry" />
        </mxCell>
        <mxCell id="HajGuJzdZtFO8f0e5h4y-22" value="PartitionN" style="text;html=1;align=center;verticalAlign=middle;resizable=0;points=[];autosize=1;strokeColor=none;fillColor=none;" vertex="1" parent="1">
          <mxGeometry x="590" y="550" width="80" height="30" as="geometry" />
        </mxCell>
        <mxCell id="HajGuJzdZtFO8f0e5h4y-23" value="" style="rounded=1;whiteSpace=wrap;html=1;fillColor=#d5e8d4;strokeColor=#82b366;" vertex="1" parent="1">
          <mxGeometry x="585" y="330" width="90" height="20" as="geometry" />
        </mxCell>
        <mxCell id="HajGuJzdZtFO8f0e5h4y-24" value="PartitionN" style="text;html=1;align=center;verticalAlign=middle;resizable=0;points=[];autosize=1;strokeColor=none;fillColor=none;" vertex="1" parent="1">
          <mxGeometry x="590" y="298" width="80" height="30" as="geometry" />
        </mxCell>
        <mxCell id="HajGuJzdZtFO8f0e5h4y-25" value="" style="shape=waypoint;sketch=0;size=6;pointerEvents=1;points=[];fillColor=none;resizable=0;rotatable=0;perimeter=centerPerimeter;snapToPoint=1;" vertex="1" parent="1">
          <mxGeometry x="515" y="420" width="20" height="20" as="geometry" />
        </mxCell>
        <mxCell id="HajGuJzdZtFO8f0e5h4y-26" value="" style="shape=waypoint;sketch=0;size=6;pointerEvents=1;points=[];fillColor=none;resizable=0;rotatable=0;perimeter=centerPerimeter;snapToPoint=1;" vertex="1" parent="1">
          <mxGeometry x="525" y="420" width="20" height="20" as="geometry" />
        </mxCell>
        <mxCell id="HajGuJzdZtFO8f0e5h4y-27" value="" style="shape=waypoint;sketch=0;size=6;pointerEvents=1;points=[];fillColor=none;resizable=0;rotatable=0;perimeter=centerPerimeter;snapToPoint=1;" vertex="1" parent="1">
          <mxGeometry x="535" y="420" width="20" height="20" as="geometry" />
        </mxCell>
        <mxCell id="HajGuJzdZtFO8f0e5h4y-35" style="edgeStyle=orthogonalEdgeStyle;rounded=0;orthogonalLoop=1;jettySize=auto;html=1;entryX=0.5;entryY=1;entryDx=0;entryDy=0;" edge="1" parent="1" source="HajGuJzdZtFO8f0e5h4y-28" target="HajGuJzdZtFO8f0e5h4y-32">
          <mxGeometry relative="1" as="geometry" />
        </mxCell>
        <mxCell id="HajGuJzdZtFO8f0e5h4y-28" value="&lt;b&gt;Aggregate (Final)&lt;/b&gt;" style="whiteSpace=wrap;html=1;rounded=0;fillColor=#dae8fc;strokeColor=#6c8ebf;" vertex="1" parent="1">
          <mxGeometry x="405" y="160" width="120" height="60" as="geometry" />
        </mxCell>
        <mxCell id="HajGuJzdZtFO8f0e5h4y-29" value="" style="endArrow=classic;html=1;rounded=0;exitX=0.371;exitY=0;exitDx=0;exitDy=0;exitPerimeter=0;" edge="1" parent="1">
          <mxGeometry width="50" height="50" relative="1" as="geometry">
            <mxPoint x="307.9699999999998" y="298" as="sourcePoint" />
            <mxPoint x="437" y="230" as="targetPoint" />
          </mxGeometry>
        </mxCell>
        <mxCell id="HajGuJzdZtFO8f0e5h4y-30" value="" style="endArrow=classic;html=1;rounded=0;" edge="1" parent="1">
          <mxGeometry width="50" height="50" relative="1" as="geometry">
            <mxPoint x="440" y="300" as="sourcePoint" />
            <mxPoint x="460" y="230" as="targetPoint" />
          </mxGeometry>
        </mxCell>
        <mxCell id="HajGuJzdZtFO8f0e5h4y-31" value="" style="endArrow=classic;html=1;rounded=0;" edge="1" parent="1">
          <mxGeometry width="50" height="50" relative="1" as="geometry">
            <mxPoint x="630" y="300" as="sourcePoint" />
            <mxPoint x="480" y="230" as="targetPoint" />
          </mxGeometry>
        </mxCell>
        <mxCell id="HajGuJzdZtFO8f0e5h4y-32" value="" style="rounded=1;whiteSpace=wrap;html=1;fillColor=#d5e8d4;strokeColor=#82b366;" vertex="1" parent="1">
          <mxGeometry x="420" y="92" width="90" height="20" as="geometry" />
        </mxCell>
        <mxCell id="HajGuJzdZtFO8f0e5h4y-33" value="Partition0" style="text;html=1;align=center;verticalAlign=middle;resizable=0;points=[];autosize=1;strokeColor=none;fillColor=none;" vertex="1" parent="1">
          <mxGeometry x="430" y="60" width="70" height="30" as="geometry" />
        </mxCell>
      </root>
    </mxGraphModel>
  </diagram>
</mxfile>
